<?xml version="1.0" standalone="no"?>
<!DOCTYPE svg PUBLIC "-//W3C//DTD SVG 20010904//EN"
 "http://www.w3.org/TR/2001/REC-SVG-20010904/DTD/svg10.dtd">
<svg version="1.0" xmlns="http://www.w3.org/2000/svg"
 width="1024.000000pt" height="798.000000pt" viewBox="0 0 1024.000000 798.000000"
 preserveAspectRatio="xMidYMid meet">
<metadata>
Created by potrace 1.16, written by Peter Selinger 2001-2019
</metadata>
<g transform="translate(0.000000,798.000000) scale(0.100000,-0.100000)"
fill="#000000" stroke="none">
<path d="M7360 6934 c-309 -35 -660 -149 -949 -309 l-81 -45 -61 25 c-130 55
-217 69 -429 69 -144 0 -219 -4 -287 -17 -275 -52 -502 -174 -708 -382 -157
-158 -240 -279 -435 -641 -129 -239 -232 -375 -380 -502 -41 -35 -176 -136
-299 -225 -403 -288 -606 -475 -882 -807 -292 -352 -992 -1359 -1112 -1600
-61 -122 -66 -140 -41 -165 17 -16 36 -14 86 10 16 8 28 11 28 9 0 -6 -257
-334 -379 -484 -47 -58 -161 -192 -254 -299 -163 -189 -186 -223 -173 -257 5
-14 16 -16 64 -10 108 13 365 98 573 191 57 26 163 72 234 102 72 30 146 62
165 71 19 8 40 17 45 19 6 3 -8 -10 -30 -29 -520 -433 -825 -706 -797 -716 27
-9 242 51 433 121 53 19 213 88 355 153 714 323 1244 531 1482 581 l90 20 50
-72 c43 -61 76 -92 230 -209 169 -128 282 -235 282 -268 0 -8 -5 -19 -12 -26
-8 -8 -8 -15 2 -26 19 -23 -15 -33 -39 -12 -29 26 -116 56 -163 56 -80 0 -161
-58 -208 -150 -18 -36 -19 -41 -5 -46 20 -8 2502 0 2510 8 13 13 -40 101 -83
139 -54 47 -169 105 -227 114 -24 4 -67 0 -110 -10 -172 -41 -319 -29 -450 35
-156 76 -547 398 -581 477 -41 95 91 317 239 404 125 73 358 228 477 317 206
154 485 451 628 670 57 87 131 238 152 310 19 61 29 52 23 -20 -8 -79 7 -72
53 27 73 158 121 391 131 632 l6 152 36 -68 c56 -105 59 -109 71 -91 12 17 6
135 -15 300 -33 253 -29 412 16 589 40 158 161 351 292 464 53 45 61 48 154
63 69 11 202 17 446 21 249 4 347 9 344 17 -8 24 -116 77 -249 121 -173 56
-423 108 -662 135 -100 12 -202 24 -228 28 l-47 7 78 117 c89 134 147 205 241
297 128 126 352 278 526 357 111 51 268 103 330 110 30 4 54 11 54 16 0 29
-154 96 -270 117 -64 11 -230 20 -280 15z m385 -84 c82 -29 90 -40 28 -40 -62
0 -236 -33 -331 -61 -67 -21 -271 -98 -327 -123 -16 -8 -53 -14 -82 -14 -58 0
-94 -9 -106 -26 -6 -8 -10 -8 -13 0 -4 9 -11 9 -29 0 -14 -6 -25 -14 -25 -18
0 -5 -5 -8 -12 -8 -6 0 -3 9 7 20 15 17 16 20 3 20 -9 0 -21 -6 -28 -14 -7 -9
-27 -14 -50 -13 -37 1 -38 2 -21 18 9 9 28 20 42 24 23 8 23 8 4 16 -19 8 -19
8 3 15 17 5 21 11 16 26 -4 14 -2 18 5 14 6 -4 11 -3 11 2 0 6 7 13 16 16 8 3
12 2 9 -4 -3 -6 -1 -10 4 -10 6 0 11 7 11 15 0 14 14 19 47 18 7 -1 11 3 8 7
-5 9 21 22 45 24 8 1 16 11 18 23 3 23 37 35 104 37 16 1 28 5 28 9 0 5 5 5
10 2 6 -4 17 -2 24 4 7 6 31 13 52 15 22 3 54 9 73 15 19 6 38 8 42 5 5 -3 9
0 9 7 0 9 42 10 173 6 138 -4 184 -10 232 -27z m-775 -348 c-277 -158 -452
-272 -575 -375 -107 -90 -110 -92 -75 -54 70 77 290 239 475 349 84 50 308
168 320 168 5 0 -60 -40 -145 -88z m-1185 58 c3 -5 1 -10 -4 -10 -6 0 -11 5
-11 10 0 6 2 10 4 10 3 0 8 -4 11 -10z m985 -10 c0 -5 -2 -10 -4 -10 -3 0 -8
5 -11 10 -3 6 -1 10 4 10 6 0 11 -4 11 -10z m-1010 -31 c0 -5 5 -9 10 -9 6 0
10 7 10 15 0 22 30 18 51 -7 16 -17 19 -18 19 -5 0 12 7 16 23 13 12 -2 27 1
34 6 7 5 14 5 18 -2 3 -5 -1 -10 -9 -10 -9 0 -16 -5 -16 -10 0 -6 11 -8 28 -4
21 5 25 4 15 -6 -7 -8 -9 -20 -3 -35 14 -36 2 -65 -26 -63 -13 1 -24 6 -24 11
0 4 -4 5 -10 2 -5 -3 -10 -1 -10 6 0 8 -7 6 -19 -5 -11 -10 -25 -15 -32 -11
-6 4 -34 9 -62 10 -40 2 -55 8 -70 26 -10 13 -27 34 -37 46 -18 21 -18 22 0
20 10 -1 24 -11 31 -24 7 -13 18 -23 24 -23 7 0 20 -10 28 -22 13 -19 16 -20
16 -6 1 9 -15 29 -34 44 -19 14 -32 31 -28 37 5 8 8 7 11 -1 2 -7 12 -17 23
-22 17 -9 18 -7 15 19 -2 21 0 28 10 24 8 -3 14 -9 14 -14z m-108 -64 c6 -14
15 -25 20 -25 4 0 8 -4 8 -10 0 -5 -7 -10 -16 -10 -9 0 -13 -5 -9 -12 4 -7 -6
2 -22 20 -29 33 -46 42 -37 19 6 -18 -22 -42 -31 -27 -3 5 0 10 7 10 10 0 9 3
-2 11 -11 8 -12 12 -2 16 6 2 12 10 12 16 0 7 14 13 30 14 24 2 33 -3 42 -22z
m-107 4 c11 -17 -1 -21 -15 -4 -8 9 -8 15 -2 15 6 0 14 -5 17 -11z m-50 -9 c3
-5 1 -10 -4 -10 -6 0 -11 5 -11 10 0 6 2 10 4 10 3 0 8 -4 11 -10z m125 -50
c0 -5 -2 -10 -4 -10 -3 0 -8 5 -11 10 -3 6 -1 10 4 10 6 0 11 -4 11 -10z
m-140 -20 c0 -5 -2 -10 -4 -10 -3 0 -8 5 -11 10 -3 6 -1 10 4 10 6 0 11 -4 11
-10z m65 -18 c-3 -3 -11 0 -18 7 -9 10 -8 11 6 5 10 -3 15 -9 12 -12z m320
-92 c24 -26 13 -50 -24 -50 -23 0 -34 7 -45 29 -9 16 -12 31 -9 35 13 13 61 5
78 -14z m371 -506 c36 -7 108 -2 254 16 242 30 810 -7 1085 -70 90 -21 259
-80 251 -87 -3 -3 -38 7 -78 22 -104 38 -119 43 -158 49 -19 2 -102 16 -185
30 -263 44 -743 60 -975 32 -194 -23 -250 -9 -265 69 -4 25 -2 23 14 -12 17
-35 26 -43 57 -49z m-1370 -980 c-3 -9 -6 -18 -6 -20 0 -3 -4 -3 -10 1 -11 7
-2 35 12 35 6 0 7 -7 4 -16z m69 -4 c3 -5 1 -10 -4 -10 -6 0 -11 5 -11 10 0 6
2 10 4 10 3 0 8 -4 11 -10z m-15 -30 c0 -6 -8 -23 -17 -37 -17 -26 -17 -26 5
-21 15 4 25 1 29 -8 5 -13 8 -12 24 2 28 25 23 3 -5 -28 -23 -24 -24 -26 -6
-31 13 -3 17 -1 13 9 -3 8 0 14 6 14 13 0 14 -20 2 -39 -6 -9 -11 -10 -15 -2
-5 7 -15 6 -31 -5 -23 -15 -25 -15 -32 2 -6 16 -7 16 -14 -3 -4 -12 -19 -23
-36 -25 -15 -3 -37 -9 -47 -13 -14 -6 -17 -5 -12 4 4 6 2 19 -6 28 -11 14 -10
15 7 10 15 -5 24 0 34 16 13 20 13 21 -1 9 -9 -7 -23 -9 -33 -6 -11 5 -21 1
-27 -9 -5 -10 -14 -17 -20 -17 -6 0 -3 9 6 19 10 11 15 25 11 30 -4 7 5 10 26
9 20 -2 34 2 37 10 3 11 0 12 -14 4 -25 -13 -57 8 -43 29 7 11 9 10 9 -5 0
-14 3 -16 13 -8 7 6 22 9 34 6 11 -3 24 0 28 7 6 9 2 11 -13 7 -16 -4 -22 -2
-22 9 0 10 6 13 16 9 11 -4 15 -2 11 8 -4 10 0 12 14 9 10 -3 19 -11 19 -19 0
-8 6 -11 16 -7 8 3 13 11 10 18 -2 7 -2 16 1 19 10 10 23 7 23 -4z m-120 -30
c0 -5 -4 -10 -10 -10 -5 0 -10 5 -10 10 0 6 5 10 10 10 6 0 10 -4 10 -10z
m160 2 c0 -14 -11 -21 -26 -15 -21 8 -17 23 6 23 11 0 20 -4 20 -8z m100 -62
c8 -11 22 -20 32 -20 10 0 18 -2 18 -4 0 -2 3 -12 7 -22 5 -13 3 -15 -7 -9 -8
5 -5 -5 6 -21 16 -22 20 -40 16 -72 -4 -39 -5 -41 -18 -25 -11 14 -14 15 -12
3 3 -17 -27 -60 -52 -75 -10 -5 -8 -1 4 13 10 12 16 28 13 36 -3 8 0 20 8 26
8 6 11 18 8 27 -3 8 0 19 8 24 11 7 9 9 -8 9 -26 0 -41 -19 -23 -30 9 -6 7
-11 -8 -19 -29 -15 -41 -13 -19 3 18 14 18 15 0 25 -10 6 -13 11 -6 11 7 0 18
10 24 23 9 18 9 20 -1 10 -10 -9 -16 -8 -27 3 -8 7 -12 18 -8 23 3 6 -2 14
-11 19 -11 6 -13 12 -6 16 6 4 8 14 5 24 -5 13 -2 13 13 -4 10 -11 27 -23 36
-27 15 -5 16 -4 5 13 -6 11 -15 20 -19 20 -5 0 -8 5 -8 10 0 16 15 11 30 -10z
m-60 -64 c0 -3 -4 -8 -10 -11 -5 -3 -10 -1 -10 4 0 6 5 11 10 11 6 0 10 -2 10
-4z m-651 -2665 c-33 -93 29 -183 186 -272 127 -72 241 -154 372 -269 l108
-95 -150 -9 c-184 -10 -213 -3 -340 90 -49 36 -135 96 -190 133 -106 73 -185
148 -235 227 -32 52 -37 80 -17 107 10 14 265 127 275 122 1 -1 -3 -16 -9 -34z"/>
<path d="M7015 6780 c-3 -5 -1 -10 4 -10 6 0 11 5 11 10 0 6 -2 10 -4 10 -3 0
-8 -4 -11 -10z"/>
<path d="M5790 6520 c0 -5 5 -10 11 -10 5 0 7 5 4 10 -3 6 -8 10 -11 10 -2 0
-4 -4 -4 -10z"/>
<path d="M5905 6479 c-4 -6 -2 -16 5 -22 10 -9 11 -9 6 0 -3 6 -1 13 6 15 9 3
9 6 1 11 -7 4 -15 2 -18 -4z"/>
<path d="M7060 800 c-119 -22 -188 -143 -146 -255 40 -103 161 -152 261 -106
95 44 139 137 110 232 -26 87 -131 147 -225 129z"/>
<path d="M2199 786 c-377 -79 -626 -351 -682 -749 l-6 -37 188 0 187 0 17 72
c39 168 132 290 274 360 77 38 93 43 177 46 109 5 193 -13 274 -60 68 -38 156
-127 197 -197 17 -28 35 -49 40 -47 6 2 81 25 168 51 86 27 157 52 157 57 0 5
-12 32 -26 61 -104 205 -294 366 -504 428 -96 27 -358 36 -461 15z"/>
<path d="M8390 462 l0 -334 -52 47 c-98 85 -195 118 -348 117 -123 0 -223 -31
-313 -96 -67 -47 -139 -121 -163 -168 l-14 -27 615 0 615 0 -2 395 -3 395
-168 2 -167 2 0 -333z"/>
<path d="M3850 290 c-98 -9 -179 -33 -265 -78 -73 -39 -178 -129 -208 -180
l-17 -30 570 0 570 -1 -19 28 c-91 128 -281 239 -436 255 -33 4 -73 8 -90 10
-16 2 -64 0 -105 -4z"/>
<path d="M5243 269 c-64 -20 -165 -99 -178 -140 -14 -42 -25 -15 -25 61 l0 80
-155 0 -155 0 0 -135 0 -135 380 0 380 0 0 135 0 135 -26 10 c-41 16 -154 10
-221 -11z"/>
<path d="M5575 253 c3 -10 25 -71 47 -135 l40 -118 165 0 c152 0 164 1 159 18
-3 9 -21 68 -41 130 -19 63 -35 116 -35 118 0 2 -77 4 -171 4 -159 0 -171 -1
-164 -17z"/>
<path d="M6485 258 c-15 -42 -75 -241 -75 -249 0 -5 69 -9 158 -9 l158 0 42
128 c23 70 42 131 42 135 0 4 -72 7 -160 7 -120 0 -162 -3 -165 -12z"/>
<path d="M6950 135 l0 -135 160 0 160 0 0 135 0 135 -160 0 -160 0 0 -135z"/>
</g>
</svg>
